<?xml version="1.0" standalone="no"?>
<!DOCTYPE svg PUBLIC "-//W3C//DTD SVG 20010904//EN"
 "http://www.w3.org/TR/2001/REC-SVG-20010904/DTD/svg10.dtd">
<svg version="1.0" xmlns="http://www.w3.org/2000/svg"
 width="1000.000000pt" height="1000.000000pt" viewBox="0 0 1000.000000 1000.000000"
 preserveAspectRatio="xMidYMid meet">
<metadata>
Created by potrace 1.11, written by Peter Selinger 2001-2013
</metadata>
<g transform="translate(0.000000,1000.000000) scale(0.100000,-0.100000)"
fill="#000000" stroke="none">
<path d="M6390 9725 l0 -75 -225 0 -225 0 0 -75 0 -75 -150 0 -150 0 0 -75 0
-75 -155 0 -155 0 0 -75 0 -75 -75 0 -75 0 0 -75 0 -75 -75 0 -75 0 0 -75 0
-75 -75 0 -75 0 0 -75 0 -75 -75 0 -75 0 0 -75 0 -75 -75 0 -75 0 0 -75 0 -75
-75 0 -75 0 0 -75 0 -75 -75 0 -75 0 0 -75 0 -75 -75 0 -75 0 0 -80 0 -80 -75
0 -75 0 0 80 0 80 -80 0 -80 0 0 150 0 150 -75 0 -75 0 0 -150 0 -150 -75 0
-75 0 0 -460 0 -460 -75 0 -75 0 0 -75 0 -75 -75 0 -75 0 0 -75 0 -75 -75 0
-75 0 0 -75 0 -75 -75 0 -75 0 0 -75 0 -75 -75 0 -75 0 0 -75 0 -75 -75 0 -75
0 0 -150 0 -150 -75 0 -75 0 0 -150 0 -150 -75 0 -75 0 0 -300 0 -300 -75 0
-75 0 0 -530 0 -530 75 0 75 0 0 -1055 0 -1055 75 0 75 0 0 -75 0 -75 75 0 75
0 0 -80 0 -80 75 0 75 0 0 -75 0 -75 375 0 375 0 0 -675 0 -675 75 0 75 0 0
-75 0 -75 530 0 530 0 0 75 0 75 75 0 75 0 0 675 0 675 305 0 305 0 0 75 0 75
75 0 75 0 0 80 0 80 75 0 75 0 0 75 0 75 75 0 75 0 0 980 0 980 75 0 75 0 0
225 0 225 75 0 75 0 0 230 0 230 75 0 75 0 0 150 0 150 75 0 75 0 0 150 0 150
75 0 75 0 0 150 0 150 75 0 75 0 0 150 0 150 80 0 80 0 0 75 0 75 75 0 75 0 0
75 0 75 75 0 75 0 0 75 0 75 75 0 75 0 0 75 0 75 75 0 75 0 0 75 0 75 75 0 75
0 0 75 0 75 75 0 75 0 0 75 0 75 75 0 75 0 0 80 0 80 150 0 150 0 0 75 0 75
75 0 75 0 0 150 0 150 75 0 75 0 0 230 0 230 -75 0 -75 0 0 -75 0 -75 -75 0
-75 0 0 -80 0 -80 -150 0 -150 0 0 -75 0 -75 -300 0 -300 0 0 75 0 75 75 0 75
0 0 230 0 230 75 0 75 0 0 300 0 300 -75 0 -75 0 0 150 0 150 -75 0 -75 0 0
75 0 75 -75 0 -75 0 0 75 0 75 -150 0 -150 0 0 75 0 75 -305 0 -305 0 0 -75z
m-1810 -7085 l0 -230 -75 0 -75 0 0 -75 0 -75 -455 0 -455 0 0 75 0 75 -75 0
-75 0 0 155 0 155 455 0 455 0 0 75 0 75 150 0 150 0 0 -230z"/>
</g>
</svg>
