<?xml version="1.0" standalone="no"?>
<!DOCTYPE svg PUBLIC "-//W3C//DTD SVG 20010904//EN"
 "http://www.w3.org/TR/2001/REC-SVG-20010904/DTD/svg10.dtd">
<svg version="1.0" xmlns="http://www.w3.org/2000/svg"
 width="421.000000pt" height="421.000000pt" viewBox="0 0 421.000000 421.000000"
 preserveAspectRatio="xMidYMid meet">
<metadata>
Created by potrace 1.11, written by Peter Selinger 2001-2013
</metadata>
<g transform="translate(0.000000,421.000000) scale(0.100000,-0.100000)"
fill="#000000" stroke="none">
<path d="M1551 4139 c-132 -22 -45 -22 429 1 146 7 140 7 -110 7 -146 0 -289
-3 -319 -8z"/>
<path d="M2831 4053 c16 -31 19 -59 19 -178 0 -131 -23 -342 -49 -455 -13 -55
-14 -80 -3 -80 29 0 82 389 82 603 l0 79 28 -23 c82 -69 328 -416 318 -452 -5
-21 37 -120 48 -110 8 9 8 -9 -4 -106 -15 -112 -116 -579 -129 -594 -4 -4 -29
37 -56 90 -27 54 -53 103 -58 108 -4 6 -22 31 -40 56 -48 70 -141 190 -171
222 -14 16 -32 43 -40 60 -15 37 -107 131 -151 155 -126 66 -456 -3 -779 -165
-145 -72 -351 -200 -480 -296 -201 -152 -461 -404 -636 -616 -70 -84 -102
-118 -94 -98 4 11 1 17 -9 17 -8 0 -17 -8 -21 -17 -3 -10 -9 -23 -12 -30 -3
-7 2 -10 15 -6 29 7 26 -4 -16 -67 -20 -30 -61 -101 -90 -157 -29 -57 -53 -95
-53 -85 0 36 57 239 73 259 7 9 15 10 31 2 20 -10 20 -10 -1 8 -21 16 -22 22
-12 58 13 51 37 121 55 160 7 17 23 63 35 104 12 40 28 85 35 100 8 14 14 32
14 39 0 9 7 11 20 7 11 -4 20 -2 20 4 0 6 -4 11 -10 11 -16 0 -12 41 11 100
12 30 27 75 34 100 8 25 21 68 29 95 18 58 19 65 7 65 -5 0 -12 -16 -15 -35
-4 -19 -20 -68 -37 -108 -94 -225 -169 -419 -169 -435 0 -9 -8 -31 -19 -47
-10 -17 -23 -47 -30 -67 -14 -43 -16 -44 -226 -53 -239 -10 -295 -16 -295 -33
0 -12 9 -13 48 -9 26 4 137 10 246 13 l199 7 -5 -24 c-3 -13 -24 -91 -46 -172
-54 -194 -92 -405 -99 -543 -6 -105 -4 -114 21 -170 32 -70 46 -86 102 -119
29 -17 63 -27 106 -30 57 -4 59 -4 20 5 -69 15 -158 68 -189 113 -24 35 -28
51 -31 128 -3 60 1 105 12 143 16 53 30 70 38 45 2 -7 18 -12 35 -13 17 0 29
-5 26 -10 -3 -5 0 -7 7 -4 8 2 22 21 33 41 16 31 24 37 50 37 38 1 62 19 105
82 18 26 36 47 40 45 4 -1 39 24 79 56 40 31 81 57 91 57 11 0 27 11 36 25 9
13 33 29 54 35 22 7 46 24 59 43 19 26 30 31 65 33 24 0 59 4 79 8 l35 8 12
-65 c19 -101 115 -307 143 -307 5 0 31 46 59 103 36 75 48 109 43 127 -6 22
-5 24 10 11 23 -18 22 -35 -12 -132 -15 -46 -34 -103 -41 -126 -9 -30 -19 -43
-32 -43 -20 0 -25 -29 -5 -32 6 0 17 -2 22 -3 6 -2 17 -3 25 -4 8 0 27 -23 43
-50 30 -54 32 -61 17 -61 -5 0 -33 -15 -62 -34 -29 -18 -89 -51 -133 -74 -83
-41 -140 -81 -117 -82 15 0 257 124 352 181 36 21 101 73 145 114 l80 74 32
-36 c18 -20 33 -42 33 -49 0 -14 -19 -34 -159 -169 -95 -92 -194 -218 -227
-289 -65 -141 -23 -306 112 -442 50 -50 72 -65 120 -79 73 -22 137 -30 161
-20 16 6 16 8 -4 16 -13 4 -23 16 -23 24 0 9 -4 14 -8 11 -4 -2 -14 0 -22 5
-10 7 -1 8 30 4 88 -12 111 50 27 74 -23 7 -56 22 -74 33 -39 23 -96 41 -87
27 3 -6 -5 -7 -21 -3 -15 4 -47 7 -70 8 -59 1 -75 18 -70 72 3 33 0 44 -11 45
-29 3 -33 4 -45 16 -7 7 -10 40 -7 95 4 78 6 87 50 158 65 105 152 204 259
294 50 43 92 76 94 74 2 -1 20 -28 41 -58 20 -30 40 -57 44 -60 4 -3 31 -41
61 -86 30 -44 104 -154 164 -243 158 -232 184 -273 184 -298 1 -13 5 -23 10
-23 5 0 19 -21 31 -48 30 -65 48 -82 84 -82 39 0 49 7 70 48 15 29 16 41 6 82
-9 37 -9 54 0 72 22 41 53 68 79 68 64 -1 161 -74 161 -123 0 -30 -35 -98 -73
-142 -30 -35 -40 -39 -112 -51 -130 -21 -162 -19 -196 15 -23 23 -29 38 -29
73 -1 40 -2 42 -16 23 -15 -21 -11 -63 10 -98 19 -30 95 -70 122 -63 20 5 24
3 24 -18 0 -16 14 -36 42 -60 23 -20 44 -36 48 -36 37 0 66 94 36 119 -21 18
-20 31 2 31 62 0 162 129 162 209 0 40 -5 49 -45 86 -27 26 -63 47 -90 55 -46
13 -95 57 -95 86 0 20 -13 18 -44 -7 l-27 -21 -69 33 c-38 19 -69 40 -69 47
-1 16 -21 16 -21 -1 0 -20 43 -57 67 -57 11 0 31 -8 43 -18 l23 -19 -23 -31
c-28 -37 -34 -34 -82 41 -18 29 -92 135 -164 237 -72 102 -148 214 -169 250
-21 36 -51 85 -67 109 -16 24 -28 45 -26 47 5 5 164 -40 218 -62 25 -9 56 -26
69 -36 24 -18 71 -25 71 -10 0 5 32 1 72 -9 58 -14 79 -26 113 -59 60 -58 133
-201 141 -275 5 -43 9 -54 15 -40 4 11 8 32 8 46 2 46 -97 228 -161 297 -32
35 -35 43 -37 110 -1 40 1 72 4 72 4 0 39 -16 79 -35 40 -19 82 -35 92 -35 18
1 18 1 -1 12 -11 6 -22 14 -25 18 -3 4 -37 24 -77 44 -80 40 -105 40 -178 2
-35 -18 -58 -21 -170 -21 -110 0 -141 4 -202 24 -40 13 -84 34 -98 47 -14 13
-34 28 -45 34 -19 10 -31 28 -72 110 -18 35 -23 62 -23 122 0 45 -4 79 -10 82
-14 5 -13 225 1 234 11 8 38 64 36 75 -1 4 2 7 8 7 5 0 10 7 10 15 0 9 7 18
15 21 8 4 15 17 15 30 0 12 8 27 17 33 15 8 15 11 4 25 -12 14 -11 19 5 31 18
14 17 14 -11 15 l-30 0 39 33 c37 30 64 47 126 79 14 7 27 15 30 18 6 7 58 24
180 58 83 23 114 26 245 27 83 0 159 -4 170 -9 11 -5 30 -10 43 -12 83 -11
268 -176 320 -286 74 -158 96 -346 54 -483 -25 -84 -31 -126 -37 -268 -6 -156
-2 -151 -149 -144 -66 3 -110 2 -96 -2 14 -5 34 -13 45 -19 30 -17 113 -31
138 -23 69 20 78 42 88 203 4 79 15 168 24 198 33 116 37 137 38 215 1 92 -12
157 -56 270 -36 94 -62 137 -111 190 -20 21 -36 41 -36 46 0 14 -85 80 -143
111 -44 24 -55 34 -43 40 20 11 83 126 95 174 5 21 15 57 20 79 6 22 11 67 11
100 1 59 1 60 18 35 9 -13 52 -72 94 -130 84 -114 167 -264 191 -348 15 -49
15 -57 -8 -155 -13 -56 -28 -118 -34 -137 -13 -40 -14 -67 -4 -56 11 11 62
154 77 216 7 30 25 98 38 150 14 52 38 163 53 245 15 83 36 193 47 245 11 52
26 133 33 180 8 47 21 130 30 185 9 55 20 125 25 154 6 32 6 59 1 64 -11 11
-14 -3 -42 -178 -12 -77 -25 -144 -30 -149 -9 -10 -39 45 -39 71 0 53 -272
463 -307 463 -7 0 -30 17 -51 39 -20 21 -47 41 -59 45 l-21 7 19 -38z m-164
-787 c24 -2 33 1 33 11 0 8 5 11 10 8 6 -3 10 -2 10 4 0 5 -6 12 -12 14 -7 3
-8 6 -3 6 27 2 39 -19 37 -65 -1 -29 3 -51 11 -56 8 -5 11 -35 10 -98 -1 -83
-4 -94 -32 -136 -17 -25 -31 -52 -31 -61 0 -9 -15 -36 -32 -60 -31 -41 -35
-43 -68 -37 -19 3 -47 6 -62 6 -15 -1 -30 3 -33 8 -10 17 -25 11 -18 -7 6 -14
1 -15 -38 -8 -58 10 -181 6 -196 -6 -6 -6 -24 -9 -40 -6 -27 4 -27 5 -6 12 12
4 25 15 28 25 3 10 13 21 23 25 14 5 14 7 2 16 -22 16 53 3 128 -20 65 -21
103 -20 79 2 -18 17 -55 37 -68 37 -18 0 -109 42 -105 49 3 3 21 6 41 5 24 -1
38 3 42 13 3 8 12 12 19 9 8 -3 14 -2 14 3 0 5 11 12 25 15 14 4 23 11 20 16
-3 6 5 10 19 10 14 0 26 4 26 9 0 5 10 13 23 16 44 13 85 35 90 49 4 9 14 12
26 9 12 -3 21 -1 21 6 0 6 9 20 20 31 24 24 26 72 5 94 -9 9 -35 21 -58 27
-23 7 -46 16 -52 20 -5 4 -35 12 -66 19 -42 10 -61 10 -77 1 -13 -7 -22 -8
-22 -2 0 23 55 27 139 9 46 -10 100 -20 118 -22z m-297 -19 c-20 -18 -98 -63
-85 -49 15 17 79 60 90 61 5 1 3 -5 -5 -12z m-125 -266 c3 -5 1 -12 -5 -16 -5
-3 -10 1 -10 9 0 18 6 21 15 7z m-72 -208 c-7 -2 -21 -2 -30 0 -10 3 -4 5 12
5 17 0 24 -2 18 -5z m-608 -1090 c-8 -19 -15 -39 -15 -44 0 -14 28 -11 33 4 3
7 6 5 6 -5 1 -10 8 -18 17 -18 17 0 44 23 44 38 0 5 9 12 21 15 15 4 19 2 15
-8 -3 -9 0 -12 10 -8 8 3 13 11 10 18 -9 24 9 36 30 20 10 -8 15 -15 9 -15 -5
0 -41 -29 -79 -65 -54 -50 -73 -62 -83 -53 -7 6 -13 15 -13 21 0 6 -9 20 -20
32 -19 20 -19 24 -5 51 8 16 15 37 15 47 0 10 4 15 10 12 6 -4 4 -19 -5 -42z
m-85 -23 c0 -5 18 -33 40 -62 22 -29 40 -60 40 -68 -1 -19 -44 32 -65 77 -9
18 -22 39 -31 48 -14 13 -14 15 0 15 9 0 16 -4 16 -10z m164 -950 c9 0 19 -7
23 -15 7 -19 -5 -34 -15 -20 -4 6 -14 11 -22 13 -22 5 -50 33 -44 44 3 5 14 2
23 -6 10 -9 25 -16 35 -16z m97 -58 c-7 -2 -18 1 -23 6 -8 8 -4 9 13 5 13 -4
18 -8 10 -11z"/>
<path d="M2617 2871 c-59 -34 -77 -51 -56 -51 17 0 118 62 119 73 0 12 -13 8
-63 -22z"/>
<path d="M1940 3429 c-79 -11 -199 -29 -265 -40 -66 -12 -147 -25 -180 -29
-33 -4 -154 -29 -270 -55 -118 -27 -245 -49 -290 -52 -428 -21 -621 -36 -634
-49 -8 -7 -12 -16 -9 -19 3 -4 86 -1 184 5 261 17 350 18 347 3 -3 -15 14 -18
19 -3 3 11 72 30 198 55 47 9 99 20 115 25 104 30 240 56 615 115 354 55 364
57 375 60 29 9 -77 1 -205 -16z"/>
<path d="M2876 2328 c-14 -68 -15 -102 -6 -166 14 -101 36 -152 66 -152 51 0
68 104 34 209 -12 39 -28 78 -36 88 -13 17 -13 17 -13 -2 0 -11 8 -45 19 -75
20 -58 27 -165 10 -175 -19 -11 -39 42 -51 133 -9 70 -9 99 0 118 15 33 14 44
-4 44 -8 0 -17 -10 -19 -22z"/>
<path d="M552 2219 c2 -7 10 -15 17 -17 8 -3 12 1 9 9 -2 7 -10 15 -17 17 -8
3 -12 -1 -9 -9z"/>
<path d="M2550 2196 c15 -17 21 -33 18 -50 -3 -16 -1 -26 6 -26 13 0 36 20 36
31 0 16 -53 69 -68 69 -12 0 -11 -5 8 -24z"/>
<path d="M2355 2150 c-38 -4 -113 -8 -166 -9 -70 -1 -100 -5 -115 -17 -12 -9
-15 -17 -8 -20 7 -3 10 -21 6 -49 -8 -74 22 -121 87 -138 14 -3 30 -2 37 4 8
6 21 6 40 -2 65 -25 208 -6 250 32 l21 20 -5 -28 c-5 -26 -4 -27 12 -13 44 35
56 145 23 196 -24 38 -34 39 -182 24z m136 -90 c-5 -64 -24 -95 -71 -114 -80
-32 -151 -14 -188 46 -10 18 -19 47 -18 63 1 27 5 30 35 33 26 3 40 -2 58 -22
39 -42 113 -32 113 15 0 10 10 19 23 22 47 9 52 4 48 -43z"/>
<path d="M1426 1577 c3 -10 9 -15 12 -12 3 3 0 11 -7 18 -10 9 -11 8 -5 -6z"/>
<path d="M2153 1533 c9 -2 23 -2 30 0 6 3 -1 5 -18 5 -16 0 -22 -2 -12 -5z"/>
<path d="M2757 1489 c-23 -52 -48 -165 -32 -148 19 22 57 137 52 162 -3 19 -5
18 -20 -14z"/>
<path d="M2405 1317 c-57 -66 -70 -93 -68 -141 3 -71 23 -85 23 -16 0 43 6 63
31 101 28 44 38 83 14 56z"/>
<path d="M2691 1289 c-6 -18 -9 -34 -7 -36 2 -2 9 10 15 28 6 18 9 34 7 36 -2
2 -9 -10 -15 -28z"/>
<path d="M1140 1290 c-8 -5 -10 -10 -5 -10 6 0 17 5 25 10 8 5 11 10 5 10 -5
0 -17 -5 -25 -10z"/>
<path d="M888 1213 c6 -2 18 -2 25 0 6 3 1 5 -13 5 -14 0 -19 -2 -12 -5z"/>
<path d="M775 1200 c-19 -8 -19 -9 2 -9 12 -1 25 4 28 9 7 12 -2 12 -30 0z"/>
<path d="M828 1203 c6 -2 18 -2 25 0 6 3 1 5 -13 5 -14 0 -19 -2 -12 -5z"/>
<path d="M688 1193 c12 -2 30 -2 40 0 9 3 -1 5 -23 4 -22 0 -30 -2 -17 -4z"/>
<path d="M3120 1011 c0 -16 56 -51 92 -57 l33 -5 -33 15 c-18 9 -47 25 -63 36
-16 12 -29 17 -29 11z"/>
<path d="M2319 753 c-13 -16 -12 -17 4 -4 16 13 21 21 13 21 -2 0 -10 -8 -17
-17z"/>
<path d="M2160 665 c-16 -9 -19 -14 -9 -15 8 0 24 7 35 15 24 18 7 19 -26 0z"/>
<path d="M671 576 c15 -12 71 -38 125 -56 264 -87 472 -206 641 -363 34 -33
67 -57 73 -55 11 3 -108 126 -160 166 -156 119 -404 244 -625 313 -77 24 -86
23 -54 -5z"/>
<path d="M2349 532 c-8 -20 -25 -68 -38 -106 -12 -38 -34 -92 -47 -120 -13
-27 -22 -52 -19 -54 8 -8 123 240 131 281 8 48 -6 47 -27 -1z"/>
<path d="M1802 528 c-6 -13 -29 -66 -51 -118 -22 -52 -65 -149 -95 -215 -30
-66 -50 -122 -44 -124 16 -6 23 7 98 179 40 91 83 187 96 214 24 51 31 86 16
86 -5 0 -14 -10 -20 -22z"/>
</g>
</svg>
