<?xml version="1.0" standalone="no"?>
<!DOCTYPE svg PUBLIC "-//W3C//DTD SVG 20010904//EN"
 "http://www.w3.org/TR/2001/REC-SVG-20010904/DTD/svg10.dtd">
<svg version="1.0" xmlns="http://www.w3.org/2000/svg"
 width="512.000000pt" height="512.000000pt" viewBox="0 0 512.000000 512.000000"
 preserveAspectRatio="xMidYMid meet">
<metadata>
Created by potrace 1.11, written by Peter Selinger 2001-2013
</metadata>
<g transform="translate(0.000000,512.000000) scale(0.100000,-0.100000)"
fill="#000000" stroke="none">
<path d="M620 5106 c-80 -18 -127 -35 -201 -72 -187 -93 -315 -248 -391 -472
l-23 -67 -2 -1905 c-2 -2131 -7 -1983 69 -2143 45 -93 70 -131 134 -200 98
-105 232 -185 374 -224 61 -17 176 -18 1970 -18 1048 0 1921 3 1940 7 293 55
517 264 607 563 17 57 18 166 20 1960 3 2037 5 1950 -46 2086 -57 151 -185
306 -321 387 -40 24 -113 57 -164 75 l-91 32 -1910 2 c-1478 1 -1922 -2 -1965
-11z m3808 -511 c71 -22 137 -85 162 -155 18 -53 19 -98 19 -1038 0 -540 -3
-982 -7 -982 -4 0 -43 36 -86 81 -144 149 -253 215 -401 244 -75 15 -232 22
-243 10 -3 -3 -12 1 -20 8 -13 9 -14 9 -8 0 4 -8 1 -13 -8 -13 -24 0 -26 -1
-101 -27 -38 -14 -86 -36 -107 -49 -21 -13 -40 -24 -43 -24 -10 0 -61 -46
-176 -158 -63 -62 -119 -109 -124 -105 -4 5 -5 3 -2 -3 7 -11 -228 -251 -241
-247 -7 3 -229 215 -451 431 -423 412 -470 445 -667 487 -86 18 -238 13 -314
-10 -30 -10 -59 -18 -65 -19 -23 -5 -133 -66 -170 -96 -22 -17 -92 -80 -155
-140 -63 -59 -131 -122 -150 -140 -19 -18 -67 -62 -105 -99 -83 -77 -338 -317
-370 -346 -12 -11 -36 -33 -53 -49 l-32 -30 1 1132 c0 1004 2 1137 16 1178 25
74 111 150 188 167 11 2 840 5 1842 5 1582 1 1828 -1 1871 -13z m-2555 -2057
c28 -14 83 -66 467 -438 257 -250 443 -430 614 -595 45 -44 201 -195 345 -335
145 -140 289 -279 320 -309 31 -30 55 -58 53 -62 -1 -5 2 -8 7 -7 8 3 291
-267 291 -277 0 -3 -726 -5 -1614 -4 -1820 0 -1680 -6 -1766 77 -76 74 -79 92
-80 494 l0 341 47 45 c27 24 77 72 113 106 272 255 350 328 385 361 152 142
284 266 320 300 99 96 282 265 308 285 15 12 40 25 55 30 37 10 104 5 135 -12z
m2190 -317 c17 -11 148 -136 289 -278 l258 -259 -3 -489 c-2 -421 -4 -494 -17
-518 l-16 -28 -169 165 c-218 211 -358 346 -467 451 -49 46 -88 89 -88 94 0 6
-6 11 -12 11 -7 0 -44 32 -83 71 -38 39 -130 128 -202 197 -73 69 -133 129
-133 134 0 6 109 116 388 391 32 32 76 65 98 72 49 18 115 12 157 -14z"/>
<path d="M3076 3819 c-187 -69 -295 -263 -250 -451 4 -18 8 -35 8 -38 3 -20
71 -122 103 -152 97 -93 253 -129 381 -87 219 70 327 326 226 534 -14 29 -43
70 -64 91 -21 22 -36 42 -33 47 2 4 1 6 -4 5 -4 -1 -39 13 -77 32 -61 30 -79
34 -155 36 -61 1 -100 -4 -135 -17z m192 -255 c29 -19 62 -72 62 -100 0 -39
-30 -94 -63 -114 -93 -57 -210 21 -191 128 16 89 117 134 192 86z"/>
</g>
</svg>
